<svg id="Grupo_1045" data-name="Grupo 1045" xmlns="http://www.w3.org/2000/svg" width="64" height="64" viewBox="0 0 64 64">
  <g id="Grupo_11" data-name="Grupo 11">
    <circle id="Elipse_1" data-name="Elipse 1" cx="32" cy="32" r="32" fill="#ffdd1e"/>
    <g id="Grupo_10" data-name="Grupo 10" transform="translate(11.193 32.091)">
      <g id="Grupo_8" data-name="Grupo 8">
        <g id="Grupo_7" data-name="Grupo 7">
          <path id="Trazado_15" data-name="Trazado 15" d="M247,180.971c1.156,7.9,9.846,14.048,20.4,14.048s19.243-6.144,20.4-14.048Z" transform="translate(-247 -180.971)" fill="#8a6a10"/>
        </g>
      </g>
      <g id="Grupo_9" data-name="Grupo 9" transform="translate(8.224)">
        <path id="Trazado_16" data-name="Trazado 16" d="M262.32,180.971v15.921a12.175,12.175,0,0,0,24.35,0V180.971Z" transform="translate(-262.32 -180.971)" fill="#ff6363"/>
        <path id="Trazado_17" data-name="Trazado 17" d="M284.061,199.112h0a1.088,1.088,0,0,1-1.088-1.088V180.971h2.176v17.053A1.088,1.088,0,0,1,284.061,199.112Z" transform="translate(-271.886 -180.971)" fill="#e24e58"/>
        <path id="Trazado_18" data-name="Trazado 18" d="M277.517,223.018a12.209,12.209,0,0,0,12.168-11.929c-7.768,7.559-16.029,8.522-20.841,8.275A12.137,12.137,0,0,0,277.517,223.018Z" transform="translate(-265.342 -194.921)" fill="#ff5f65"/>
      </g>
    </g>
    <circle id="Elipse_2" data-name="Elipse 2" cx="2.645" cy="2.645" r="2.645" transform="translate(20.45 18.471)" fill="#8a6a10"/>
    <circle id="Elipse_3" data-name="Elipse 3" cx="2.645" cy="2.645" r="2.645" transform="translate(36.941 18.471)" fill="#8a6a10"/>
  </g>
</svg>
